<svg viewBox="0 0 24 24">
  <path fill-rule="evenodd" d="M 0,17.999926 V 6.0001383 h 4.465635 c 1.199977,0 2.159958,0.2571383 2.879945,0.7714149 0.725707,0.5085624 1.08856,1.2628347 1.08856,2.262817 0,0.3714219 -0.08,0.7171301 -0.24,1.0371248 -0.16,0.319994 -0.371423,0.602846 -0.63427,0.848556 -0.262853,0.239996 -0.55142,0.428564 -0.8657,0.565704 0.651413,0.217139 1.179973,0.591419 1.58568,1.122838 0.411427,0.531419 0.61714,1.171407 0.61714,1.919966 0,0.69713 -0.174283,1.30569 -0.52285,1.825681 -0.348567,0.519991 -0.842843,0.925699 -1.48283,1.217122 -0.639993,0.285709 -1.402838,0.428564 -2.288534,0.428564 z m 2.537098,-1.902824 h 1.688541 c 0.685703,0 1.197123,-0.13714 1.534261,-0.411421 0.337133,-0.274281 0.5057,-0.688559 0.5057,-1.242835 0,-0.537133 -0.16571,-0.948555 -0.49713,-1.234264 C 5.437047,12.917159 4.939912,12.771447 4.277067,12.771447 H 2.537098 Z m 0,-5.108481 h 1.577115 c 0.38285,0 0.711416,-0.06286 0.985697,-0.188568 0.279993,-0.125712 0.494277,-0.305709 0.64285,-0.53999 C 5.89704,10.020067 5.97418,9.7315007 5.97418,9.394364 5.97418,8.9143724 5.80847,8.5458074 5.47705,8.2886691 5.151339,8.0315308 4.682774,7.9029617 4.071356,7.9029617 H 2.537098 Z m 7.468687,7.011305 v -1.697113 l 2.56281,-2.322816 c 0.799987,-0.725701 1.431403,-1.334262 1.89425,-1.825682 0.468567,-0.497134 0.79999,-0.937126 0.99427,-1.319977 0.2,-0.38285 0.3,-0.768557 0.3,-1.157122 0,-0.5714185 -0.191427,-1.0142678 -0.57428,-1.3285479 -0.382853,-0.3142801 -0.922843,-0.4714202 -1.61997,-0.4714202 -0.525707,0 -1.031413,0.099998 -1.51712,0.2999947 -0.479987,0.1942823 -0.902837,0.4828486 -1.26855,0.8656989 L 9.894355,7.2086883 C 10.420062,6.734411 11.022908,6.3715603 11.702895,6.1201362 12.388595,5.8687121 13.091442,5.743 13.811435,5.743 c 0.868553,0 1.62568,0.1514259 2.27138,0.4542777 0.645707,0.3028517 1.142843,0.7285585 1.49141,1.2771202 0.35428,0.5428475 0.53142,1.1771218 0.53142,1.9028231 0,0.497134 -0.09714,0.985697 -0.29143,1.465689 -0.19428,0.474277 -0.539987,1.008553 -1.03712,1.602828 -0.49142,0.594275 -1.185693,1.314263 -2.08282,2.159962 l -1.39712,1.302834 h 4.80808 v 2.091392 z" clip-rule="evenodd" fill="currentcolor"/>
</svg>
