<svg viewBox="0 0 32 32">
  <path fill="currentColor" d="M 16,0 A 16,16 0 0 0 0,16 16,16 0 0 0 16,32 16,16 0 0 0 32,16 16,16 0 0 0 16,0 Z m 0,2 A 14,14 0 0 1 30,16 14,14 0 0 1 16,30 14,14 0 0 1 2,16 14,14 0 0 1 16,2 Z m 7.499023,8.5 c -0.255619,0 -0.511163,0.09808 -0.707031,0.293946 l -9.899414,9.899413 -3.8896485,-3.888672 c -0.3917375,-0.391737 -1.0223255,-0.391737 -1.4140625,0 -0.3917375,0.391738 -0.3917375,1.022325 0,1.414063 l 4.59668,4.595703 c 0.02449,0.02448 0.04994,0.04791 0.07617,0.06934 0.393511,0.321347 0.970637,0.297917 1.337891,-0.06934 L 24.206054,12.208008 c 0.391738,-0.391737 0.391738,-1.022326 0,-1.414062 C 24.010186,10.598077 23.754642,10.5 23.499023,10.5 Z"/>
</svg>
